<svg xmlns="http://www.w3.org/2000/svg" viewBox="0 0 764.0 882.0" role="img" aria-label="Structured Ladder FBD blocks"><ns0:svg xmlns:ns0="http://www.w3.org/2000/svg" viewBox="0 0 764 492" role="img" aria-label="Structured Ladder FBD" y="0" width="764.0" height="492.0" data-block-index="0"><ns0:style>text{font-family:Consolas,"Microsoft YaHei",sans-serif;font-size:13px;fill:#213349}.wire{stroke:#58748e;stroke-width:2;fill:none}.node{stroke:#254a6e;stroke-width:2;fill:#f4f8fc}.symbol{font-size:15px;fill:#174f7d}.port{fill:#fff;stroke:#254a6e;stroke-width:1.5}</ns0:style><ns0:rect width="764" height="492" fill="#ffffff" /><ns0:g transform="translate(42 42)"><ns0:path class="wire" d="M34,102 L102,102" /><ns0:path class="wire" d="M170,102 L204,102" /><ns0:path class="wire" d="M204,102 L272,102" /><ns0:path class="wire" d="M272,102 L340,102" /><ns0:path class="wire" d="M408,102 L442,102" /><ns0:path class="wire" d="M442,102 L510,102" /><ns0:path class="wire" d="M204,102 L204,204" /><ns0:path class="wire" d="M204,204 L272,204" /><ns0:path class="wire" d="M272,204 L340,204" /><ns0:path class="wire" d="M408,204 L442,204" /><ns0:path class="wire" d="M442,204 L510,204" /><ns0:path class="wire" d="M510,204 L510,102" /><ns0:path class="wire" d="M510,102 L612,102" /><ns0:path class="wire" d="M510,204 L612,204" /><ns0:path class="wire" d="M34,0 L34,408" /><ns0:g data-node-offset="95"><ns0:title>X0</ns0:title><ns0:path class="wire" d="M102,102 H124.66666666666667 M147.33333333333334,102 H170" /><ns0:path class="wire" d="M124.66666666666667,91 V113 M147.33333333333334,91 V113" /><ns0:text class="symbol" x="136.0" y="84" text-anchor="middle">X0</ns0:text><ns0:circle class="port" cx="102" cy="102" r="3" /><ns0:circle class="port" cx="170" cy="102" r="3" /></ns0:g><ns0:g data-node-offset="175"><ns0:title>X1</ns0:title><ns0:path class="wire" d="M340,102 H362.6666666666667 M385.3333333333333,102 H408" /><ns0:path class="wire" d="M362.6666666666667,91 V113 M385.3333333333333,91 V113" /><ns0:text class="symbol" x="374.0" y="84" text-anchor="middle">X1</ns0:text><ns0:circle class="port" cx="340" cy="102" r="3" /><ns0:circle class="port" cx="408" cy="102" r="3" /></ns0:g><ns0:g data-node-offset="255"><ns0:title>X2</ns0:title><ns0:path class="wire" d="M340,204 H362.6666666666667 M385.3333333333333,204 H408" /><ns0:path class="wire" d="M362.6666666666667,193 V215 M385.3333333333333,193 V215" /><ns0:path class="wire" d="M358.36,216 L389.64,192" /><ns0:text class="symbol" x="374.0" y="186" text-anchor="middle">X2</ns0:text><ns0:circle class="port" cx="340" cy="204" r="3" /><ns0:circle class="port" cx="408" cy="204" r="3" /></ns0:g><ns0:g data-node-offset="335"><ns0:title>Y0</ns0:title><ns0:path class="wire" d="M612,102 H634.6666666666666 M657.3333333333334,102 H680" /><ns0:path class="wire" d="M640.56,91 Q622.2,102 640.56,113 M651.44,91 Q669.8,102 651.44,113" /><ns0:text class="symbol" x="646.0" y="84" text-anchor="middle">Y0</ns0:text><ns0:circle class="port" cx="612" cy="102" r="3" /><ns0:circle class="port" cx="680" cy="102" r="3" /></ns0:g><ns0:g data-node-offset="415"><ns0:title>Y1</ns0:title><ns0:path class="wire" d="M612,204 H634.6666666666666 M657.3333333333334,204 H680" /><ns0:path class="wire" d="M640.56,193 Q622.2,204 640.56,215 M651.44,193 Q669.8,204 651.44,215" /><ns0:text class="symbol" x="646.0" y="186" text-anchor="middle">Y1</ns0:text><ns0:circle class="port" cx="612" cy="204" r="3" /><ns0:circle class="port" cx="680" cy="204" r="3" /></ns0:g></ns0:g></ns0:svg><ns0:svg xmlns:ns0="http://www.w3.org/2000/svg" viewBox="0 0 458 390" role="img" aria-label="Structured Ladder FBD" y="492.0" width="458.0" height="390.0" data-block-index="1"><ns0:style>text{font-family:Consolas,"Microsoft YaHei",sans-serif;font-size:13px;fill:#213349}.wire{stroke:#58748e;stroke-width:2;fill:none}.node{stroke:#254a6e;stroke-width:2;fill:#f4f8fc}.symbol{font-size:15px;fill:#174f7d}.port{fill:#fff;stroke:#254a6e;stroke-width:1.5}</ns0:style><ns0:rect width="458" height="390" fill="#ffffff" /><ns0:g transform="translate(42 42)"><ns0:path class="wire" d="M34,102 L102,102" /><ns0:path class="wire" d="M170,102 L204,102" /><ns0:path class="wire" d="M204,102 L306,102" /><ns0:path class="wire" d="M34,0 L34,306" /><ns0:g data-node-offset="1179"><ns0:title>X3</ns0:title><ns0:path class="wire" d="M102,102 H124.66666666666667 M147.33333333333334,102 H170" /><ns0:path class="wire" d="M124.66666666666667,91 V113 M147.33333333333334,91 V113" /><ns0:text class="symbol" x="136.0" y="84" text-anchor="middle">X3</ns0:text><ns0:circle class="port" cx="102" cy="102" r="3" /><ns0:circle class="port" cx="170" cy="102" r="3" /></ns0:g><ns0:g data-node-offset="1259"><ns0:title>Y2</ns0:title><ns0:path class="wire" d="M306,102 H328.6666666666667 M351.3333333333333,102 H374" /><ns0:path class="wire" d="M334.56,91 Q316.2,102 334.56,113 M345.44,91 Q363.8,102 345.44,113" /><ns0:text class="symbol" x="340.0" y="84" text-anchor="middle">Y2</ns0:text><ns0:circle class="port" cx="306" cy="102" r="3" /><ns0:circle class="port" cx="374" cy="102" r="3" /></ns0:g></ns0:g></ns0:svg></svg>